<svg xmlns="http://www.w3.org/2000/svg" width="131.215" height="119" viewBox="0 0 131.215 119"><defs><style>.a{fill:#780627;}.a,.b,.c,.d{fill-rule:evenodd;}.b{fill:#987341;}.c,.g{fill:#5e001b;}.d,.i{fill:#b38e5d;}.e{fill:#84193a;}.f{fill:#9d2449;}.h{fill:#fff;}.i{font-size:24px;font-family:TitilliumWeb-Bold, Titillium Web;font-weight:700;}</style></defs><g transform="translate(0)"><path class="a" d="M655.627,161a53.64,53.64,0,0,1,37.9,91.586,3.075,3.075,0,0,0-.855-1.233,7.512,7.512,0,0,0-1.213-.875,50.669,50.669,0,1,0-70.608,1.014v3.957A53.628,53.628,0,0,1,655.627,161Z" transform="translate(-590.03 -157.799)"/><path class="b" d="M1627.914,26a12.454,12.454,0,0,1,.656,1.77,9.9,9.9,0,0,0-.974,1.471,7.279,7.279,0,0,0-.736,1.69c-.895,3.957-.616.378-4.335,5.408a23.4,23.4,0,0,0-2.147,2.724c-.974-.02-1.213-.219-2.446-.219l-.437,1.988c1.153-.02.557-.1,1.392-.3.3-.06.676-.08,1.253-.139l1.372,1.969c.318.338.119.278.636.477-.1,1.133-.636,1.253-.736,2.028a13.6,13.6,0,0,1,0,2.565c-.318,1.312-2.585,3.162-2.963,5.906a6.656,6.656,0,0,0,1.292,3.858c.815.895.915.636,2.187.935l1.71-1.829a16.222,16.222,0,0,0,2.426,2.764,8.724,8.724,0,0,0,3.4,1.949l-.278,1.75a2.377,2.377,0,0,0,.935.895c.776,0,.855-.258,1.452-.457a3.969,3.969,0,0,0,1.213-.418l1.77,2.883c.7,1.054,2.227.855,3.321,1.094-.278,1.233-.994,2.983-2.187,3.6-.636.338-1.491-.02-2.366-.159a4.3,4.3,0,0,0-2.306.338c0,.954-.119,1.094.219,1.77l-3.082,1.292a.414.414,0,0,0-.119.04l-.417.1c-.875.08-1.71-.557-2.585-.756-1.153.756-2.207,2.187-3.559,3.1a8.472,8.472,0,0,1-1.829-.835,17.384,17.384,0,0,0-2.286-.6c-3.818-1.074-2.346-3.46-4.832-4.911-.437-.258-1.332-.656-1.571-1.133a.411.411,0,0,0-.04-.119l-.06-.259c-.378-1.352-.875-1.65-1.114-2.565-1.611,0-1.114.179-2.227.437,0,3.8-.437.915.239,5.965.159,1.253.477,2.167.636,3.36.259,1.849.656,1.511-.02,3.042-.577,1.312-.418,1.75-.418,3.579a4.18,4.18,0,0,0-2.644,4c0,.4,2.227,1.809,2.644,2.446-2.068,3.082-1.929.179-.895,6.244.2,1.114.278.935-.338,1.571a11.813,11.813,0,0,1-1.411,1.273c-1.75-3.3-2.883-2.824-4.375-1.273-.577.6-.875.7-1.452,1.213-.775.7-.457.616-1.63,1.034-.935.3-1.213.616-1.849.8.02,1.571.219,1.809,1.392,2.366a13.264,13.264,0,0,1,3.221,2.525c.955,1.233.676,1.491,2.466,1.531,1.054.04.934.159,1.77.219,0,1.352-.318,2.585.08,3.46.318.7.4.557,1.113.915,1.73.835,1.292.915,3.042.08,2.485-1.153,2.028-.338,4.176.119a2.3,2.3,0,0,1,2.008,1.63c1.67-.04.835-.557,2.008-1.332,1.153.318.219.557,1.551.676.079-.954.358-1.054.437-1.988a52.385,52.385,0,0,0,6.144-.08c5.309-.716,1.213,1.392,6.045,1.392,1.193,0,1.332-.6,1.332-1.551s-2.148-2.167-2.665-2.863l1.253-4.056c1.432-3.738,1.034-1.491,2.943-2.843l2.008-1.969,1.034.954a10.6,10.6,0,0,0,1.193.815,5.322,5.322,0,0,0-.457,1.988,13.393,13.393,0,0,1-.438,2.227,3.182,3.182,0,0,0,1.392,1.253c.616.358,1.133.517,1.352,1.193l1.014,3.977c.895-.239.656-.477.954-1.491.517-1.869,1.889-2.307,3.182-3.48a5.771,5.771,0,0,1,.736-.577c.5-.358.855-.656,1.412-1.034a3.234,3.234,0,0,1,2.008-.656c4.514-.6,3.281.577,4.136.577a1.724,1.724,0,0,0,1.272-.477c2.267-1.631.8-1.233,3.878-1.67,1.471-.219,1.292-.517,2.028-1.73,1.67-2.784,2.008-2.287.4-5.468-.417-.8-.159-.477-1.074-.935-1.034-.517-1.968-.815-2.9-.06a9.85,9.85,0,0,1-4.275,1.71,12.147,12.147,0,0,0-1.491-2.287,5.089,5.089,0,0,1-.5-2.824c-.776,0-2.108-.139-3.062-.239a13.155,13.155,0,0,0-1.611-.179c-1.014-.06-.755.179-1.392-.378a18.715,18.715,0,0,1-1.273-2.008c-.437-1.491,2.824-5.07,2.943-5.349.378-.8.1-.577,0-1.392a56.511,56.511,0,0,1-.258-6.84,15.1,15.1,0,0,0,4.056-1.491c1.67-.775,3.261.1,4.355-1.392-1.452-1.988-2.764-.477-5.249-1.392l-4.315-1.452c-1.432-.457-1.889-1.591-2.446-3.539-.418-1.452-1.551-2.843-.855-4.255.7-1.471.259-.935,1.571-1.551a21.205,21.205,0,0,1,.736-4.355,39.146,39.146,0,0,1,2.943-7.7c.5-.994.378-.815,1.312-1.352.8-.437,1.233-.457,1.432-1.233a9.544,9.544,0,0,1-1.651-.577,30.021,30.021,0,0,1-3.639-1.213c-1.074-.557-.438-.537-.915-1.531h-1.988c-.159,1.77-.219,2.207-1.352,3.082-.736.557-1.81,1.71-2.863,1.79a7.914,7.914,0,0,0-1.332-1.988c-1.233.1-1.292.756-2.306.119-.895-.557-.815-.875-1.909-1.452.417-1.75.875-2.505.3-4.295-.358-1.133-.08-3.062-.08-4.355h2.664c1.014,0,1.094-1.611,2.883-1.77-.418-1.571-2.625-.577-3.718-1.591-.318-.278-.557-.577-.875-.895-1.591-1.531-.954-2.525-.954-5.925-1.511-.815-.855-.895-2.863-.895A7.03,7.03,0,0,1,1627.914,26Z" transform="translate(-1564.265 -21.563)"/><path class="c" d="M991.582,4083a54.939,54.939,0,0,1-6.4,9.743h-3.9a51.1,51.1,0,0,0,6.959-9.743Zm-89.2,9.743A53.773,53.773,0,0,1,896,4083h3.341a51.891,51.891,0,0,0,6.939,9.743Z" transform="translate(-878.184 -4001.813)"/><path class="d" d="M1658.914,4a12.5,12.5,0,0,1,.676,1.77,7.528,7.528,0,0,0-.974,1.471,7.379,7.379,0,0,0-.756,1.69c-.895,3.957-.616.378-4.335,5.408a23.36,23.36,0,0,0-2.147,2.724c-.954-.02-1.213-.219-2.426-.219l-.457,1.988c1.153-.02.577-.1,1.412-.3.3-.06.676-.08,1.253-.139l1.352,1.969c.318.338.139.278.636.477-.079,1.133-.616,1.253-.716,2.028a15.525,15.525,0,0,1,0,2.565c-.318,1.312-2.585,3.162-2.983,5.906a6.952,6.952,0,0,0,1.292,3.858c.835.895.915.636,2.187.935l1.73-1.829a15.4,15.4,0,0,0,2.426,2.764,8.651,8.651,0,0,0,3.38,1.949l-.259,1.75a2.38,2.38,0,0,0,.934.895c.756,0,.855-.258,1.452-.457a3.888,3.888,0,0,0,1.193-.418l1.77,2.883c.716,1.054,2.247.855,3.341,1.094-.3,1.233-1.014,2.983-2.187,3.6-.656.338-1.491-.02-2.386-.159a4.329,4.329,0,0,0-2.307.338c0,.954-.1,1.094.219,1.77l-3.062,1.292a.213.213,0,0,0-.119.04l-.418.1c-.875.08-1.73-.557-2.6-.775-1.133.775-2.207,2.207-3.539,3.122a8.626,8.626,0,0,1-1.849-.835,17.394,17.394,0,0,0-2.287-.6c-3.8-1.074-2.326-3.46-4.832-4.911-.437-.258-1.312-.656-1.551-1.133-.02-.02-.02-.08-.04-.119l-.06-.258c-.378-1.352-.875-1.65-1.134-2.565-1.591,0-1.094.179-2.207.437,0,3.778-.437.915.219,5.965.179,1.253.5,2.167.656,3.36.239,1.829.636,1.511-.02,3.042-.577,1.312-.418,1.75-.418,3.579a4.2,4.2,0,0,0-2.665,4c0,.4,2.247,1.809,2.665,2.446-2.068,3.082-1.949.179-.895,6.244.179,1.114.278.935-.358,1.571a9.387,9.387,0,0,1-1.412,1.273c-1.75-3.3-2.863-2.824-4.374-1.273-.577.6-.855.7-1.432,1.213-.775.7-.457.616-1.63,1.034-.935.3-1.213.616-1.869.8.04,1.571.219,1.809,1.412,2.366a13.263,13.263,0,0,1,3.221,2.525c.955,1.233.676,1.491,2.466,1.531,1.034.04.935.159,1.77.219,0,1.352-.318,2.585.079,3.46.318.7.378.557,1.094.915,1.73.835,1.312.915,3.062.08,2.466-1.153,2.028-.338,4.176.119a2.324,2.324,0,0,1,2.008,1.63c1.67-.04.835-.557,1.988-1.332,1.173.318.239.557,1.551.676.08-.954.378-1.054.438-1.988a52.727,52.727,0,0,0,6.164-.08c5.289-.736,1.213,1.392,6.025,1.392,1.213,0,1.332-.6,1.332-1.551s-2.128-2.167-2.645-2.883l1.253-4.036c1.432-3.738,1.034-1.491,2.923-2.843l2.028-1.969,1.014.954a12.764,12.764,0,0,0,1.193.815,5.757,5.757,0,0,0-.437,1.988,13.4,13.4,0,0,1-.437,2.227,3.179,3.179,0,0,0,1.392,1.253c.6.358,1.133.517,1.352,1.193l1.014,3.977c.895-.239.656-.477.935-1.491.537-1.869,1.889-2.307,3.181-3.48a5.89,5.89,0,0,1,.756-.577c.477-.358.855-.656,1.412-1.034a3.191,3.191,0,0,1,2.008-.656c4.494-.6,3.281.577,4.116.577a1.773,1.773,0,0,0,1.293-.477c2.247-1.65.8-1.233,3.858-1.67,1.491-.219,1.312-.517,2.048-1.73,1.67-2.784,1.988-2.287.378-5.468-.4-.8-.139-.477-1.054-.935-1.034-.517-1.969-.815-2.9-.06a9.849,9.849,0,0,1-4.275,1.71,12.146,12.146,0,0,0-1.491-2.287,5.284,5.284,0,0,1-.517-2.824c-.775,0-2.088-.139-3.062-.239a12.763,12.763,0,0,0-1.591-.179c-1.014-.06-.776.179-1.392-.4a14.528,14.528,0,0,1-1.272-1.988c-.457-1.491,2.8-5.07,2.943-5.349.358-.8.1-.577,0-1.392a52.767,52.767,0,0,1-.278-6.84,14.618,14.618,0,0,0,4.056-1.491c1.67-.775,3.281.1,4.375-1.392-1.451-1.988-2.784-.477-5.249-1.392l-4.315-1.452c-1.452-.457-1.889-1.591-2.446-3.539-.417-1.452-1.551-2.843-.875-4.255.716-1.471.278-.935,1.571-1.551a21.221,21.221,0,0,1,.756-4.355,39.131,39.131,0,0,1,2.943-7.7c.477-.994.378-.815,1.312-1.352.775-.437,1.213-.457,1.432-1.233a8.989,8.989,0,0,1-1.65-.577,31.516,31.516,0,0,1-3.659-1.213c-1.054-.557-.417-.537-.895-1.531h-2.008c-.139,1.77-.2,2.207-1.352,3.082-.736.557-1.79,1.71-2.843,1.79a7.918,7.918,0,0,0-1.332-1.988c-1.253.1-1.293.756-2.326.119-.895-.557-.8-.875-1.889-1.452.417-1.75.855-2.505.3-4.295-.358-1.133-.079-3.062-.079-4.355h2.664c1.014,0,1.074-1.611,2.883-1.77-.418-1.571-2.625-.577-3.738-1.591-.3-.278-.537-.577-.875-.895-1.591-1.531-.934-2.525-.934-5.925-1.511-.815-.875-.895-2.883-.895A6.894,6.894,0,0,1,1658.914,4Z" transform="translate(-1594.649 0)"/><path class="e" d="M10.717,3103H0l4.017,10.439L0,3123.9H8.033Z" transform="translate(0 -3041.299)"/><path class="e" d="M6062.684,3123.9h8.033l-4.016-10.459,4.016-10.439H6060Z" transform="translate(-5939.502 -3041.299)"/><path class="f" d="M404,3308.918H519.148V3288H404Z" transform="translate(-395.967 -3222.621)"/><path class="g" d="M406.684,3106.678V3103L404,3106.678Z" transform="translate(-395.967 -3041.299)"/><path class="g" d="M6060,3106.678V3103l2.685,3.678Z" transform="translate(-5939.502 -3041.299)"/><path class="h" d="M1681,3523.911V3512h5.09a3.5,3.5,0,0,1,1.571.358,3.689,3.689,0,0,1,1.213.915,4.589,4.589,0,0,1,.815,1.293,4.166,4.166,0,0,1,.278,1.451,4.236,4.236,0,0,1-.258,1.511,4.97,4.97,0,0,1-.776,1.293,3.981,3.981,0,0,1-1.213.915,3.549,3.549,0,0,1-1.551.338h-2.406v3.838Zm2.764-6.244h2.247a1.074,1.074,0,0,0,.835-.418,1.859,1.859,0,0,0,.338-1.233,1.95,1.95,0,0,0-.1-.716,1.742,1.742,0,0,0-.3-.5,1.019,1.019,0,0,0-.417-.3,1.361,1.361,0,0,0-.457-.1h-2.148Zm12.805,3.9a2.31,2.31,0,0,0,1.193-.3,2.4,2.4,0,0,0,.775-.775,3.426,3.426,0,0,0,.437-1.113,7.1,7.1,0,0,0,.119-1.293V3512h2.744v6.084a8.525,8.525,0,0,1-.3,2.307,5.83,5.83,0,0,1-.954,1.889,4.6,4.6,0,0,1-1.65,1.272,5.7,5.7,0,0,1-2.366.457,5.272,5.272,0,0,1-2.426-.5,4.472,4.472,0,0,1-1.65-1.292,5.388,5.388,0,0,1-.915-1.889,8.4,8.4,0,0,1-.3-2.247V3512h2.744v6.084a6.977,6.977,0,0,0,.139,1.313,3.594,3.594,0,0,0,.438,1.093,2.068,2.068,0,0,0,.775.775A2.211,2.211,0,0,0,1696.569,3521.564Zm15.768-.08v2.426h-8.371V3512h8.232v2.406h-5.468v2.327h4.693v2.227h-4.693v2.525Zm11.533-.636a2.675,2.675,0,0,1-.338,1.352,2.573,2.573,0,0,1-.855.935,4.49,4.49,0,0,1-1.292.576,6.656,6.656,0,0,1-1.571.2h-5.786V3512h6.621a2.357,2.357,0,0,1,1.114.258,2.921,2.921,0,0,1,.855.7,3.143,3.143,0,0,1,.736,2.087,3.244,3.244,0,0,1-.417,1.611,2.713,2.713,0,0,1-1.292,1.153,2.946,2.946,0,0,1,2.227,3.042Zm-2.8-.557a1.516,1.516,0,0,0-.318-.935,1.025,1.025,0,0,0-.815-.378h-3.162v2.585h3.042a1.2,1.2,0,0,0,.895-.338A1.275,1.275,0,0,0,1721.066,3520.292Zm-4.295-5.945v2.466h2.7a1.2,1.2,0,0,0,.8-.3,1.157,1.157,0,0,0,.358-.935,1.222,1.222,0,0,0-.318-.915.966.966,0,0,0-.736-.318Zm8.709,9.564V3512h2.764v9.485h5.766v2.426ZM1738.525,3512h2.485l4.335,11.911h-2.8l-.935-2.665h-3.7l-.895,2.665h-2.823Zm2.644,7.337-1.392-4.2-1.431,4.2Z" transform="translate(-1647.575 -3442.167)"/><text class="i" transform="translate(38 110)"><tspan x="0" y="0">2019</tspan></text></g></svg>